<?xml version="1.0" encoding="UTF-8" standalone="no"?>
<!-- Generator: Adobe Illustrator 16.0.0, SVG Export Plug-In . SVG Version: 6.00 Build 0)  -->

<svg
   version="1.1"
   id="Layer_1"
   x="0px"
   y="0px"
   width="36px"
   height="36px"
   viewBox="0 0 36 36"
   enable-background="new 0 0 36 36"
   xml:space="preserve"
   sodipodi:docname="ico-youtube.svg"
   inkscape:version="1.2 (dc2aedaf03, 2022-05-15)"
   xmlns:inkscape="http://www.inkscape.org/namespaces/inkscape"
   xmlns:sodipodi="http://sodipodi.sourceforge.net/DTD/sodipodi-0.dtd"
   xmlns="http://www.w3.org/2000/svg"
   xmlns:svg="http://www.w3.org/2000/svg"><defs
   id="defs16585" /><sodipodi:namedview
   id="namedview16583"
   pagecolor="#ffffff"
   bordercolor="#000000"
   borderopacity="0.25"
   inkscape:showpageshadow="2"
   inkscape:pageopacity="0.0"
   inkscape:pagecheckerboard="0"
   inkscape:deskcolor="#d1d1d1"
   showgrid="false"
   inkscape:zoom="23.027778"
   inkscape:cx="17.739445"
   inkscape:cy="18.065139"
   inkscape:window-width="1366"
   inkscape:window-height="697"
   inkscape:window-x="-8"
   inkscape:window-y="-8"
   inkscape:window-maximized="1"
   inkscape:current-layer="Layer_1" />
<title
   id="title16572">facebook copy</title>
<desc
   id="desc16574">Created with sketchtool.</desc>
<g
   id="g16580"
   style="fill:#4079bc;fill-opacity:1">
	<polygon
   fill="#00A858"
   points="15.721,20.945 21.371,17.854 15.721,14.896  "
   id="polygon16576"
   style="fill:#4079bc;fill-opacity:1" />
	<path
   fill="#00A858"
   d="M17.999,0C8.076,0,0,8.076,0,18c0,9.925,8.076,18,17.999,18C27.926,36,36,27.925,36,18   C36,8.076,27.926,0,17.999,0z M28.808,21.532c0,2.119-1.719,3.837-3.839,3.837H11.031c-2.12,0-3.839-1.718-3.839-3.837v-7.063   c0-2.119,1.719-3.838,3.839-3.838h13.938c2.12,0,3.839,1.719,3.839,3.838V21.532z"
   id="path16578"
   style="fill:#4079bc;fill-opacity:1" />
</g>
</svg>
