<?xml version="1.0" encoding="UTF-8" standalone="no"?>
<svg
   width="36px"
   height="36px"
   viewBox="0 0 36 36"
   version="1.1"
   id="svg1076"
   sodipodi:docname="ico-facebook.svg"
   inkscape:version="1.2 (dc2aedaf03, 2022-05-15)"
   xmlns:inkscape="http://www.inkscape.org/namespaces/inkscape"
   xmlns:sodipodi="http://sodipodi.sourceforge.net/DTD/sodipodi-0.dtd"
   xmlns="http://www.w3.org/2000/svg"
   xmlns:svg="http://www.w3.org/2000/svg">
  <sodipodi:namedview
     id="namedview1078"
     pagecolor="#ffffff"
     bordercolor="#000000"
     borderopacity="0.25"
     inkscape:showpageshadow="2"
     inkscape:pageopacity="0.0"
     inkscape:pagecheckerboard="0"
     inkscape:deskcolor="#d1d1d1"
     showgrid="false"
     inkscape:zoom="22.388889"
     inkscape:cx="17.754342"
     inkscape:cy="18.044665"
     inkscape:window-width="1366"
     inkscape:window-height="697"
     inkscape:window-x="-8"
     inkscape:window-y="-8"
     inkscape:window-maximized="1"
     inkscape:current-layer="svg1076" />
  <!-- Generator: sketchtool 3.6.1 (26313) - http://www.bohemiancoding.com/sketch -->
  <title
     id="title1065">facebook copy</title>
  <desc
     id="desc1067">Created with sketchtool.</desc>
  <defs
     id="defs1069" />
  <g
     id="Symbols"
     stroke="none"
     stroke-width="1"
     fill="none"
     fill-rule="evenodd"
     style="fill:#4079bc;fill-opacity:1">
    <g
       id="home"
       transform="translate(-1203.000000, -105.000000)"
       fill="#00A858"
       style="fill:#4079bc;fill-opacity:1">
      <g
         id="Header"
         style="fill:#4079bc;fill-opacity:1">
        <g
           id="redes_sociais"
           transform="translate(1203.000000, 105.000000)"
           style="fill:#4079bc;fill-opacity:1">
          <path
             d="M22.4781421,18.6324977 L19.5491803,18.6324977 L19.5491803,29.0748564 L15.2094718,29.0748564 L15.2094718,18.6324977 L13.1466302,18.6324977 L13.1466302,14.9440664 L15.2094718,14.9440664 L15.2094718,12.5570594 C15.2094718,10.850363 16.0200364,8.17829948 19.5892532,8.17829948 L22.8023679,8.19196033 L22.8023679,11.7720155 L20.4699454,11.7720155 C20.0883424,11.7720155 19.5491803,11.9632675 19.5491803,12.7765438 L19.5491803,14.9477093 L22.856102,14.9477093 L22.4781421,18.6324977 Z M17.9990893,0 C8.07559199,0 0,8.07629841 0,17.9995446 C0,27.9246123 8.07559199,36 17.9990893,36 C27.9253188,36 36,27.9246123 36,17.9995446 C36,8.07629841 27.9253188,0 17.9990893,0 L17.9990893,0 Z"
             id="facebook-copy"
             style="fill:#4079bc;fill-opacity:1" />
        </g>
      </g>
    </g>
  </g>
</svg>
